<svg width="21" height="21" viewBox="0 0 21 21" fill="none" xmlns="http://www.w3.org/2000/svg">
<path d="M15.1312 4.63129C15.473 4.28957 16.0278 4.28957 16.3695 4.63129C16.7108 4.97302 16.711 5.52702 16.3695 5.86859L11.7367 10.5004L16.3686 15.1323C16.7101 15.474 16.7102 16.0279 16.3686 16.3696C16.0269 16.711 15.4729 16.711 15.1312 16.3696L10.4994 11.7377L5.86855 16.3696C5.52691 16.711 4.97292 16.711 4.63125 16.3696C4.2896 16.0279 4.2897 15.474 4.63125 15.1323L9.26211 10.5004L4.63027 5.86859C4.2888 5.52702 4.28906 4.97301 4.63027 4.63129C4.97197 4.28957 5.52685 4.28957 5.86855 4.63129L10.4994 9.26215L15.1312 4.63129Z" fill="#222222"/>
</svg>
