<svg width="24" height="24" viewBox="0 0 24 24" fill="none" xmlns="http://www.w3.org/2000/svg">
<g filter="url(#filter0_d_135_93175)">
<path d="M13.2284 7.65629C13.3294 7.65629 13.3916 7.58941 13.4072 7.50023C13.6404 6.2666 13.6327 6.24431 14.9699 6.0065C15.0709 5.98421 15.1409 5.93219 15.1409 5.82815C15.1409 5.73154 15.0709 5.67209 14.9776 5.64979C13.6327 5.39712 13.6638 5.37483 13.4072 4.16349C13.3916 4.06688 13.3294 4 13.2284 4C13.1273 4 13.0651 4.06688 13.0496 4.15606C12.793 5.38226 12.8319 5.41198 11.4869 5.64979C11.3858 5.67209 11.3158 5.73154 11.3158 5.82815C11.3158 5.93219 11.3858 5.98421 11.4791 6.0065C12.8319 6.2666 12.8163 6.27404 13.0496 7.50023C13.0651 7.58941 13.1273 7.65629 13.2284 7.65629ZM16.9679 12.784C17.1234 12.784 17.24 12.68 17.2634 12.5165C17.5121 10.5471 17.6054 10.4877 19.7046 10.1756C19.8912 10.1458 20 10.0492 20 9.88574C20 9.73711 19.8912 9.63307 19.7357 9.60334C17.6132 9.20948 17.5121 9.23177 17.2634 7.26242C17.24 7.09893 17.1234 6.99489 16.9679 6.99489C16.8047 6.99489 16.688 7.09893 16.6647 7.25499C16.4004 9.2615 16.3304 9.32095 14.1924 9.60334C14.0369 9.62564 13.9281 9.73711 13.9281 9.88574C13.9281 10.0418 14.0369 10.1458 14.1924 10.1756C16.3382 10.5769 16.3926 10.562 16.6647 12.5314C16.688 12.68 16.8047 12.784 16.9679 12.784ZM10.9504 20C13.8426 20 16.2371 18.5583 17.31 16.1579C17.45 15.8309 17.4344 15.5634 17.2634 15.3999C17.1234 15.2661 16.8591 15.2438 16.5792 15.3627C15.9339 15.6154 15.1565 15.7492 14.2935 15.7492C10.8105 15.7492 8.52478 13.6386 8.52478 10.3837C8.52478 9.5216 8.7036 8.56294 8.99125 7.99814C9.14674 7.68602 9.13897 7.42592 8.99903 7.26242C8.84354 7.0915 8.55588 7.06921 8.19825 7.20297C5.69485 8.1542 4 10.6289 4 13.4306C4 17.1909 6.89213 20 10.9504 20Z" fill="white"/>
</g>
<defs>
<filter id="filter0_d_135_93175" x="-4" y="0" width="32" height="27" filterUnits="userSpaceOnUse" color-interpolation-filters="sRGB">
<feFlood flood-opacity="0" result="BackgroundImageFix"/>
<feColorMatrix in="SourceAlpha" type="matrix" values="0 0 0 0 0 0 0 0 0 0 0 0 0 0 0 0 0 0 127 0" result="hardAlpha"/>
<feOffset/>
<feGaussianBlur stdDeviation="2"/>
<feComposite in2="hardAlpha" operator="out"/>
<feColorMatrix type="matrix" values="0 0 0 0 0 0 0 0 0 0 0 0 0 0 0 0 0 0 0.05 0"/>
<feBlend mode="normal" in2="BackgroundImageFix" result="effect1_dropShadow_135_93175"/>
<feBlend mode="normal" in="SourceGraphic" in2="effect1_dropShadow_135_93175" result="shape"/>
</filter>
</defs>
</svg>
